<svg enable-background="new 0 0 243.8 94.4" viewBox="0 0 243.8 94.4" xmlns="http://www.w3.org/2000/svg"><g fill="#fff"><path d="m32.3 54.8c.9-.2 2.4-.6 4.5-1 2-.4 4.7-1 7.9-1.6.5-1.2 1.2-2.7 2-4.3s1.7-3.5 2.7-5.6c.2-.3.2-.6.2-.7s0-.1 0-.1-.2.1-.6.4c-2 1.4-4 2.7-6.2 4s-4.5 2.5-7 3.7c-3 1.4-5.7 2.5-8.2 3.2s-4.7 1.1-6.6 1.1c-1.3.1-2.5-.1-3.5-.3-1.1-.3-2-.7-2.8-1.3-1.7-1.2-2.6-3-2.6-5.3 0-.6 0-1.1.1-1.8.1-.6.2-1.2.5-1.9 2-6.1 7.4-11.6 16.2-16.6 8.5-4.7 16.6-6.9 24.1-6.4 2 .1 3.7.8 5.1 2.1 1.4 1.2 2.3 2.8 2.9 4.6.1.2.1.3.1.5s-.1.2-.2.2-.2-.2-.3-.4c-.2-.6-.5-1.1-.8-1.6-.3-.4-.6-.9-1-1.2-1.4-1.4-3.2-2.2-5.6-2.5-.3 0-.7 0-1 0s-.7 0-1 0c-7.3 0-14.8 2.2-22.7 6.7-8 4.6-12.9 9.5-14.7 14.8-.5 1.5-.7 2.7-.7 3.8 0 1.8.6 3.1 1.9 4s3.2 1.4 5.9 1.4c2.1 0 4.6-.4 7.4-1.2 2.8-.9 6-2.2 9.6-4 3-1.5 5.5-2.9 7.6-4.2s3.6-2.5 4.7-3.5c0 0 .1-.1.2-.3 1.2-2.9 2.2-4.9 3-5.8.2-.2.6-.5.9-.8.4-.3.8-.7 1.3-1.1.1-.1.2-.1.2-.1.2 0 .3.2.4.6s0 .8 0 1.1c-.6 2.2-1.3 3.7-2.1 4.6-.1.1-.2.1-.4.2-.2 0-.4.1-.7.2-.2.4-.7 1.3-1.5 2.8s-1.8 3.6-3.2 6.3c.5.5 1 1.4 1.3 2.5-.2.2-.4.5-.6.8s-.5.6-.8 1c-.2.1-1 .3-2.4.7-4.2 7.6-7.7 12.3-10.6 14.1-3.1 2.1-5.8 3.2-7.9 3.3-2.3.1-4.2-.5-5.5-1.6-1.2-1-1.8-2.4-1.8-4s.6-3 1.8-4.4c1.9-1.9 5.4-3.6 10.5-5.1zm7.8-1c-1.8.4-3.4.9-4.9 1.3s-2.9.8-4.2 1.3c-3.8 1.4-6.7 2.9-8.4 4.4-1.3 1.2-1.9 2.5-1.9 4 0 1.2.5 2.2 1.6 3.1 1.2.8 3 1.2 5.2 1.2 2.8-.1 5.3-1.1 7.6-2.9 2.7-2.1 5.8-6.5 9.3-13.2zm7.2-4.1c-.3.6-.7 1.3-1 2.1.2-.1.5-.2.8-.3s.6-.3.9-.5c.4-.3.6-.7.6-1.3.1-.6-.1-1.1-.5-1.5-.3.4-.5.9-.8 1.5z"/><path d="m83.5 44.3c-.5.9-1 1.9-1.5 2.9s-.9 1.9-1.3 2.9c-.4.9-.6 1.7-.7 2.3s-.1 1 0 1.2.2.4.3.4h.6c.2-.1.5-.1.7-.2s.5-.2.8-.3.6-.3.7-.4c.5-.3.8-.4.8-.1s-.1.6-.5.9c-.3.3-.7.7-1.1 1s-.9.5-1.3.7c-.2.1-.4 0-.7-.1s-.5-.3-.8-.5c-.2-.2-.4-.5-.6-.8s-.3-.6-.3-.9c0-.6.1-1.2.2-1.9s.3-1.3.5-1.9.5-1.2.7-1.8c.3-.6.5-1.2.7-1.7s.2-.8 0-1.1-.6-.2-1.1.4c-.7.7-1.7 1.7-2.9 2.8s-2.4 2.2-3.6 3.3-2.3 2.1-3.4 2.9c-1 .9-1.8 1.4-2.3 1.5-.8.3-1.5.1-2-.4s-.8-1.2-.7-2c.1-.7.3-1.5.6-2.5.3-.9.7-1.9 1.3-2.9.5-1 1.1-2 1.7-3s1.2-2 1.8-2.9 1.2-1.7 1.7-2.4 1-1.3 1.4-1.8c.2-.2.4-.3.6-.4s.5-.1.7 0 .3.2.3.4-.1.5-.4.9c-.7.9-1.5 1.9-2.3 3s-1.5 2.3-2.3 3.5c-.7 1.2-1.4 2.3-1.9 3.4s-1 2.1-1.2 2.9c-.4 1.3-.4 2.1 0 2.4.4.4 1 .3 1.7-.1 1.2-.7 2.5-1.7 3.8-3 1.3-1.2 2.7-2.5 4-3.8s2.6-2.6 3.8-3.9 2.3-2.3 3.2-3.2c.3-.3.5-.4.7-.3s.4.3.5.5c.1.3.2.5.2.8s0 .5-.1.7c0 .9-.5 1.7-1 2.6z"/><path d="m113.2 47.6c2.4-.7 4.7-1.3 7-1.7-2.2.4-4.4 1.1-6.7 2s-4.7 2.1-7.1 3.5c.4.5.7 1 .9 1.3.2.4.3.6.3.9 0 .9-1 1.7-3.1 2.6-1.7.8-3.1 1.2-4.2 1.2-.4 0-.7 0-1-.1-.4.1-.8.1-1 .2-.3.1-.5.1-.6 0-.4 0-.5-.2-.3-.6.5-.7 2.6-2.2 6.3-4.8l-1.5-2c-.3-.4-.6-.9-.8-1.3s-.3-.8-.3-1.3c-.2-2.1 1.9-4.4 6.3-7 2.2-1.3 4.3-2.3 6.3-3 2-.6 3.8-.9 5.6-.9.2 0 .4.1.5.3.1.3.1.5 0 .6-.2.3-.6.6-1 .9-.5.3-.8.4-1 .4-.7-.2-1.3-.4-1.8-.5s-.9-.1-1.3-.1c-.2 0-.4 0-.5 0-.2 0-.3 0-.5.1-1.8.4-3.8 1.5-6.1 3.1-2.9 2-4.3 3.8-4.1 5.3.1.6.4 1.4 1 2.4.7.9 1.2 1.5 1.6 1.7 2.3-1.4 4.7-2.4 7.1-3.2zm-13.3 9.3c.6.1 1.5 0 2.8-.5.6-.2 1.1-.5 1.6-.7.4-.2.7-.4.9-.7.1-.2.2-.3.2-.5 0-.5-.4-1.1-1.1-1.7-.5.3-1.3.8-2.3 1.6-.6.4-1.1.8-1.5 1.1s-.6.6-.8.8c-.3.4-.2.6.2.6z"/><path d="m124.7 78.9c-.8-.9-1.4-1.9-1.6-3s-.3-2.4-.3-3.7c0-4.4 1.8-10.6 5.4-18.8 1.6-3.6 3.2-6.8 4.7-9.7 1.6-2.9 3.2-5.5 4.7-7.8.4-.4.6-.9.6-1.4 0-.6-.3-1-.8-1.3-1.1-.4-1.6-.9-1.3-1.4.1-.2.6-.3 1.4-.4s2-.1 3.5-.1c.1 0 .1 0 0-.1s-.1-.2 0-.3c1.5-2.3 3.2-4.6 5.2-7 2-2.3 4-4.7 6.1-7.2.2-.2 1.1-.6 2.6-1.2.7-.2 1.3-.4 1.6-.6.3-.1.7-.2 1-.2s.5.1.5.4c0 .1-.2.2-.5.3-2.9.6-7.7 5.5-14.5 14.8-.5.7-.4 1.1.3 1.1h6.7 4.3 1.9c.3 0 .5 0 .6.1 0 .1-.1.2-.3.5s-.4.4-.7.4c-1.8.1-3.8.2-6.1.3s-4.9.3-7.8.4c-.5.1-.9.3-1.2.7-1.6 2.4-3.2 4.8-4.7 7.2s-2.9 5-4.3 7.8c-2.1 4.4-3.8 8.5-5.1 12.1-1.2 3.6-2 6.9-2.2 9.7v1.1 1.1c0 5.4 1.9 8.1 5.7 8.1 1.1 0 2.3-.2 3.6-.6 2-.6 3.9-1.6 5.8-2.9s3.9-3.1 5.9-5.2 3.6-4.1 4.7-6 1.8-3.6 2-5.3c0-2.9-1-4.2-3.1-3.9-.5.1-.9.2-1.2.4s-.6.3-.7.3c-.3 0-.4-.1-.4-.4.2-.2.4-.5.7-.7s.8-.4 1.7-.8h.6c1 0 1.9.7 2.8 2 .9 1.4 1.4 2.5 1.3 3.2-.6 4.1-3.6 8.5-8.9 13.4-2.7 2.4-5.2 4.2-7.6 5.5-2.3 1.2-4.6 1.9-6.6 1.9-2.3-.1-4.3-1-6-2.8z"/><path d="m150.1 56.5c-.2-.1-.5-.2-.7-.3-.2-.2-.4-.3-.5-.6-.1-.2-.2-.4-.2-.7.1-2.6 2.1-6.4 6.2-11.4.1-.2.1-.4-.1-.4-.3-.2-.6-.3-.8-.5-.3-.2-.4-.4-.4-.6 0-.1 0-.2.1-.4s.5-.2 1.2-.3h1.8c.1 0 .3-.1.5-.2.7-.7 1.4-1 2-1 .5 0 1.2.2 2.1.8.1 0 .1.1.2.1 0 0 .1.1.2.1.7 0 1.6.1 2.6.1s2.2.1 3.5.1c.5.1.7.1.7.2 0 .2-.2.3-.7.3-1 0-1.6.2-1.9.6-.1.1-.1.2 0 .3 0 .1.1.2.1.3v.2c-.1 1.2-.6 2.4-1.5 3.8s-2.3 2.8-4.2 4.4c-3.6 3.1-6.8 4.9-9.5 5.3-.2-.1-.4-.1-.7-.2zm-.2-1.4c0 .7.5 1 1.5.8 2.1-.3 4.6-1.9 7.6-4.6 3.1-2.8 4.9-5.3 5.4-7.5.2-.9-.4-1.5-1.8-1.6-.7-.1-1.4-.1-2.1 0s-1.3.2-1.8.4c-.1 0-.3.1-.8.4-3.3 3.1-5.9 6.7-7.7 11-.2.4-.3.8-.3 1.1z"/><path d="m192.4 47.6c2.4-.7 4.7-1.3 7-1.7-2.2.4-4.4 1.1-6.7 2s-4.7 2.1-7.1 3.5c.4.5.7 1 .9 1.3.2.4.3.6.3.9 0 .9-1 1.7-3.1 2.6-1.7.8-3.1 1.2-4.2 1.2-.4 0-.7 0-1-.1-.4.1-.8.1-1 .2-.3.1-.5.1-.6 0-.4 0-.5-.2-.3-.6.5-.7 2.6-2.2 6.3-4.8l-1.5-2c-.3-.4-.6-.9-.8-1.3s-.3-.8-.3-1.3c-.2-2.1 1.9-4.4 6.3-7 2.2-1.3 4.3-2.3 6.3-3 2-.6 3.8-.9 5.6-.9.2 0 .4.1.5.3.1.3.1.5 0 .6-.2.3-.6.6-1 .9-.5.3-.8.4-1 .4-.7-.2-1.3-.4-1.8-.5s-.9-.1-1.3-.1c-.2 0-.4 0-.5 0-.2 0-.3 0-.5.1-1.8.4-3.8 1.5-6.1 3.1-2.9 2-4.3 3.8-4.1 5.3.1.6.4 1.4 1 2.4.7.9 1.2 1.5 1.6 1.7 2.4-1.4 4.8-2.4 7.1-3.2zm-13.3 9.3c.6.1 1.5 0 2.8-.5.6-.2 1.1-.5 1.6-.7.4-.2.7-.4.9-.7.1-.2.2-.3.2-.5 0-.5-.4-1.1-1.1-1.7-.5.3-1.3.8-2.3 1.6-.6.4-1.1.8-1.5 1.1s-.6.6-.8.8c-.2.4-.1.6.2.6z"/><path d="m209.2 56.5c-.2-.1-.5-.2-.7-.3-.2-.2-.4-.3-.5-.6-.1-.2-.2-.4-.2-.7.1-2.6 2.1-6.4 6.2-11.4.1-.2.1-.4-.1-.4-.3-.2-.6-.3-.8-.5-.3-.2-.4-.4-.4-.6 0-.1 0-.2.1-.4s.5-.2 1.2-.3h1.8c.1 0 .3-.1.5-.2.7-.7 1.4-1 2-1 .5 0 1.2.2 2.1.8.1 0 .1.1.2.1 0 0 .1.1.2.1.7 0 1.6.1 2.6.1s2.2.1 3.5.1c.5.1.7.1.7.2 0 .2-.2.3-.7.3-1 0-1.6.2-1.9.6-.1.1-.1.2 0 .3 0 .1.1.2.1.3v.2c-.1 1.2-.6 2.4-1.5 3.8s-2.3 2.8-4.2 4.4c-3.6 3.1-6.8 4.9-9.5 5.3-.2-.1-.5-.1-.7-.2zm-.2-1.4c0 .7.5 1 1.5.8 2.1-.3 4.6-1.9 7.6-4.6 3.1-2.8 4.9-5.3 5.4-7.5.2-.9-.4-1.5-1.8-1.6-.7-.1-1.4-.1-2.1 0s-1.3.2-1.8.4c-.1 0-.3.1-.8.4-3.3 3.1-5.9 6.7-7.7 11-.2.4-.3.8-.3 1.1z"/></g></svg>